<svg width="219" height="58" viewBox="0 0 219 58" fill="none" xmlns="http://www.w3.org/2000/svg">
<g clip-path="url(#clip0_80_944)">
<path d="M88.925 24.8214C88.5157 24.0192 87.8858 23.3507 87.1093 22.8944C86.3311 22.4381 85.3002 22.21 84.0165 22.21C82.8552 22.21 81.9025 22.383 81.1583 22.7289C80.4318 23.0623 79.815 23.5955 79.3802 24.2663C78.9035 25.0258 78.571 25.8668 78.3994 26.7469C78.3704 26.8793 78.3433 27.0132 78.3182 27.1486C78.1776 26.3389 77.9176 25.5547 77.5465 24.8214C77.1382 24.019 76.5087 23.3503 75.7323 22.8944C74.9551 22.4381 73.9241 22.21 72.6395 22.21C71.4782 22.21 70.5209 22.383 69.7678 22.7289C69.0341 23.0586 68.4106 23.5923 67.9716 24.2663C67.6545 24.7678 67.4089 25.3111 67.242 25.8805V22.58H64.2786V41.101H67.242V33.3598C67.242 31.5818 67.3468 30.1306 67.5564 29.0064C67.766 27.8822 68.0564 26.9997 68.4274 26.3588C68.7975 25.716 69.2543 25.2712 69.7978 25.0245C70.3927 24.7692 71.0355 24.6445 71.6827 24.659C72.7197 24.659 73.516 24.8259 74.0716 25.1599C74.6261 25.493 75.0458 26.0106 75.257 26.6221C75.5092 27.3805 75.6343 28.1755 75.627 28.9748C75.639 29.8994 75.6451 30.9304 75.6451 32.0676V41.101H78.6461V33.3598C78.6461 31.5818 78.7384 30.1306 78.9229 29.0064C79.1075 27.8822 79.3918 26.9997 79.7759 26.3588C80.0933 25.7776 80.5853 25.3109 81.1824 25.0245C81.7735 24.7724 82.4112 24.6478 83.0537 24.659C84.0897 24.659 84.886 24.8259 85.4426 25.1599C85.9975 25.4926 86.4173 26.0103 86.628 26.6221C86.8824 27.3805 87.014 28.1748 87.0176 28.9748C87.0416 29.8994 87.0537 30.9304 87.0537 32.0676V41.101H90.0172V31.5441C90.0246 30.2811 89.9502 29.0188 89.7945 27.7653C89.6798 26.7406 89.3855 25.7441 88.925 24.8214Z" fill="white"/>
<path d="M108.61 30.2477C108.62 29.1449 108.468 28.0466 108.159 26.9878C107.892 26.0564 107.43 25.192 106.805 24.4516C106.179 23.7296 105.393 23.1631 104.51 22.7969C103.583 22.4027 102.465 22.2052 101.156 22.2042C99.9898 22.1822 98.8308 22.3966 97.7492 22.8345C96.8285 23.209 95.9915 23.7627 95.2867 24.4636C94.6491 25.1023 94.1386 25.8563 93.7824 26.6855C93.449 27.4445 93.273 28.2633 93.2649 29.0924H96.2284C96.2167 28.5224 96.3569 27.9596 96.6346 27.4617C96.9107 26.9892 97.2754 26.5745 97.7086 26.2402C98.1699 25.8859 98.6904 25.6165 99.246 25.4444C99.827 25.2583 100.434 25.1644 101.044 25.1661C102.526 25.1661 103.662 25.5552 104.451 26.3335C105.24 27.1117 105.635 28.2149 105.635 29.6429L105.155 29.6775C104.536 29.7016 103.882 29.7387 103.192 29.7889L101.153 29.9393C100.077 29.9882 99.006 30.1185 97.9493 30.3289C96.9678 30.5149 96.0193 30.8454 95.1348 31.3097C94.3367 31.7283 93.6558 32.3395 93.1536 33.0878C92.6582 33.8289 92.411 34.755 92.412 35.8662C92.412 37.545 92.8873 38.8989 93.8381 39.9278C94.7888 40.9568 96.2028 41.4692 98.0802 41.4652C99.9064 41.4652 101.4 41.206 102.562 40.6875C103.723 40.169 104.636 39.4836 105.302 38.6311C105.432 38.4672 105.551 38.2972 105.663 38.1257C105.675 38.3664 105.69 38.592 105.71 38.7981C105.74 39.2542 105.873 39.6976 106.1 40.0948C106.315 40.4421 106.641 40.7069 107.025 40.847C107.433 41.0084 107.995 41.0887 108.711 41.0877H109.785V38.1377H108.61V30.2477ZM104.461 36.823C103.962 37.471 103.305 37.9809 102.554 38.3047C101.727 38.6868 100.646 38.8778 99.3122 38.8778C98.0526 38.8778 97.0833 38.6622 96.4044 38.231C95.7255 37.7998 95.386 37.0155 95.386 35.8783C95.3655 35.3286 95.5285 34.7877 95.8493 34.3409C96.1883 33.9094 96.6264 33.5663 97.1265 33.3405C97.7207 33.0654 98.3515 32.8774 98.9993 32.7824C99.7013 32.6711 100.448 32.5909 101.241 32.5417C101.784 32.4921 102.401 32.4439 103.093 32.3913C103.785 32.3386 104.431 32.2995 105.038 32.2619L105.648 32.2258V32.5763C105.647 33.325 105.56 34.071 105.388 34.7997C105.221 35.5302 104.906 36.2188 104.463 36.823H104.461Z" fill="white"/>
<path d="M124.317 23.0254C123.579 23.3001 122.936 23.7822 122.465 24.4138C122.014 25.0495 121.702 25.7725 121.547 26.5364L121.247 22.5801H113.205V25.4698H118.689V38.2113H113.205V41.101H130.654V38.2113H121.65V32.5807C121.638 31.3629 121.688 30.1454 121.8 28.9327C121.9 28.0081 122.129 27.292 122.485 26.7846C122.841 26.2771 123.378 25.9437 124.096 25.7842C124.812 25.6248 125.8 25.5446 127.059 25.5436H130.651V22.5801H127.243C126.053 22.5801 125.078 22.7285 124.317 23.0254Z" fill="white"/>
<path d="M157.487 24.8214C157.077 24.0192 156.447 23.3507 155.671 22.8944C154.894 22.4381 153.863 22.21 152.578 22.21C151.417 22.21 150.464 22.383 149.72 22.7289C148.993 23.0623 148.377 23.5955 147.942 24.2663C147.468 25.0265 147.139 25.8674 146.97 26.7469C146.941 26.8793 146.914 27.0132 146.889 27.1486C146.748 26.3389 146.488 25.5547 146.117 24.8214C145.709 24.019 145.079 23.3503 144.303 22.8944C143.526 22.4381 142.495 22.21 141.21 22.21C140.049 22.21 139.092 22.383 138.34 22.7289C137.603 23.057 136.976 23.5908 136.535 24.2663C136.215 24.7675 135.965 25.3107 135.795 25.8805V22.58H132.83V41.101H135.793V33.3598C135.793 31.5818 135.898 30.1306 136.108 29.0064C136.317 27.8822 136.608 26.9997 136.979 26.3588C137.349 25.716 137.805 25.2712 138.349 25.0245C138.947 24.7677 139.594 24.643 140.244 24.659C141.281 24.659 142.078 24.8259 142.633 25.1599C143.188 25.4926 143.608 26.0103 143.819 26.6221C144.072 27.3802 144.197 28.1754 144.189 28.9748C144.201 29.8994 144.207 30.9304 144.207 32.0676V41.101H147.215V33.3598C147.215 31.5818 147.308 30.1306 147.492 29.0064C147.677 27.8822 147.961 26.9997 148.345 26.3588C148.663 25.7774 149.155 25.3106 149.753 25.0245C150.343 24.7707 150.981 24.6446 151.623 24.6544C152.659 24.6544 153.455 24.8214 154.012 25.1554C154.567 25.4876 154.987 26.0055 155.197 26.6176C155.452 27.376 155.583 28.1703 155.587 28.9703C155.611 29.8949 155.623 30.9259 155.623 32.0631V41.101H158.586V31.5441C158.594 30.2811 158.519 29.0188 158.364 27.7653C158.247 26.7401 157.95 25.7436 157.487 24.8214Z" fill="white"/>
<path d="M169.654 22.21C166.963 22.21 164.845 23.0679 163.301 24.7838C161.757 26.4997 160.985 28.852 160.986 31.8405C160.986 34.8491 161.758 37.2058 163.301 38.9107C164.844 40.6156 166.962 41.468 169.654 41.468C171.901 41.468 173.747 40.8813 175.193 39.708C176.638 38.5346 177.594 36.8864 178.063 34.7634H175.101C174.779 36.1222 174.162 37.1412 173.249 37.8201C172.336 38.499 171.138 38.8385 169.655 38.8385C167.75 38.8385 166.318 38.2518 165.359 37.0785C164.506 36.0405 164.031 34.5528 163.934 32.6152H178.323L178.361 31.8375C178.361 28.85 177.589 26.4977 176.046 24.7808C174.502 23.0639 172.372 22.207 169.654 22.21ZM169.654 24.8395C171.604 24.8395 173.055 25.4262 174.007 26.5995C174.702 27.459 175.143 28.6258 175.329 30.1H164.02C164.21 28.6439 164.655 27.483 165.357 26.6176C166.32 25.4322 167.752 24.8395 169.654 24.8395Z" fill="white"/>
<path d="M191.582 19.8034C191.582 17.8027 191.156 16.3456 190.304 15.4319C189.453 14.5183 188.126 14.0615 186.322 14.0615H180.618V17.025H187.248C187.495 17.0211 187.743 17.0331 187.989 17.0611C188.145 17.078 188.289 17.1507 188.395 17.2657C188.502 17.3935 188.567 17.551 188.582 17.717C188.61 17.9818 188.622 18.248 188.618 18.5143V38.2206H181.397V41.1013H198.807V38.2116H191.586L191.582 19.8034Z" fill="white"/>
<path d="M217.251 38.1377V30.2477C217.26 29.1449 217.108 28.0466 216.8 26.9878C216.532 26.0564 216.071 25.192 215.446 24.4516C214.819 23.7294 214.032 23.1629 213.149 22.7969C212.222 22.4027 211.105 22.2052 209.797 22.2042C208.63 22.1822 207.47 22.3966 206.388 22.8345C205.468 23.2097 204.631 23.7634 203.926 24.4636C203.288 25.1022 202.778 25.8562 202.421 26.6855C202.088 27.4445 201.911 28.2632 201.902 29.0924H204.885C204.873 28.5222 205.014 27.9592 205.293 27.4617C205.568 26.9886 205.933 26.5737 206.367 26.2402C206.828 25.8859 207.348 25.6164 207.903 25.4444C208.487 25.2575 209.096 25.1636 209.708 25.1661C211.19 25.1661 212.325 25.5552 213.115 26.3335C213.906 27.1117 214.301 28.2149 214.301 29.6429L213.82 29.6775C213.202 29.7016 212.55 29.7387 211.864 29.7889L209.827 29.9393C208.751 29.9881 207.68 30.1183 206.623 30.3289C205.641 30.5146 204.692 30.8452 203.807 31.3097C203.009 31.7283 202.328 32.3395 201.826 33.0878C201.331 33.8289 201.084 34.755 201.084 35.8662C201.084 37.545 201.56 38.8989 202.512 39.9278C203.463 40.9568 204.877 41.4692 206.752 41.4652C208.581 41.4652 210.074 41.206 211.234 40.6875C212.393 40.169 213.307 39.4836 213.974 38.6311C214.104 38.4672 214.223 38.2972 214.335 38.1257C214.348 38.3664 214.363 38.592 214.382 38.7981C214.412 39.2542 214.545 39.6976 214.772 40.0948C214.988 40.4417 215.313 40.7065 215.697 40.847C216.105 41.0084 216.667 41.0887 217.383 41.0877H218.457V38.1377H217.251ZM213.102 36.823C212.602 37.471 211.946 37.9809 211.195 38.3047C210.367 38.6868 209.287 38.8778 207.953 38.8778C206.693 38.8778 205.724 38.6622 205.045 38.231C204.366 37.7998 204.027 37.0155 204.027 35.8783C204.006 35.3286 204.169 34.7877 204.49 34.3409C204.829 33.9091 205.268 33.5659 205.769 33.3405C206.362 33.0655 206.991 32.8776 207.638 32.7824C208.34 32.6711 209.087 32.5909 209.88 32.5417C210.423 32.4921 211.04 32.4439 211.732 32.3913C212.424 32.3386 213.07 32.2995 213.677 32.2619L214.287 32.2258V32.5763C214.286 33.3249 214.199 34.0708 214.029 34.7997C213.862 35.5305 213.546 36.2192 213.102 36.823Z" fill="white"/>
<path d="M40.5042 6.07178H1.87671C1.34583 6.07178 0.915466 6.50214 0.915466 7.03303V45.6605C0.915466 46.1913 1.34583 46.6217 1.87671 46.6217H40.5042C41.035 46.6217 41.4654 46.1913 41.4654 45.6605V7.03303C41.4654 6.50214 41.035 6.07178 40.5042 6.07178Z" fill="url(#paint0_linear_80_944)"/>
<path fill-rule="evenodd" clip-rule="evenodd" d="M40.6432 6.2085H2.01575C1.48487 6.2085 1.0545 6.63886 1.0545 7.16974V45.7972C1.0545 46.0996 1.19416 46.3694 1.4125 46.5456C1.45262 46.5942 1.49742 46.6388 1.54621 46.6787C1.58886 46.7308 1.63689 46.7785 1.68945 46.8207C1.7304 46.8699 1.77618 46.915 1.82606 46.9552C1.86767 47.0056 1.91431 47.0517 1.96521 47.0926C2.00459 47.1402 2.04847 47.184 2.09619 47.2232C2.1392 47.2761 2.18771 47.3243 2.24085 47.367C2.28238 47.4171 2.32891 47.4629 2.37966 47.5037C2.42139 47.554 2.46814 47.6 2.51916 47.6409C2.55842 47.6881 2.60211 47.7314 2.64958 47.7702C2.69143 47.8215 2.73848 47.8684 2.78992 47.9101C2.83229 47.9617 2.87991 48.0087 2.93197 48.0505C2.97282 48.0997 3.01848 48.1448 3.06823 48.185C3.10958 48.2351 3.1559 48.2809 3.20645 48.3218C3.24712 48.3709 3.29258 48.4159 3.34211 48.4561C3.38427 48.5073 3.43162 48.5541 3.48338 48.5957C3.52393 48.6447 3.56925 48.6895 3.61863 48.7296C3.66007 48.78 3.70654 48.8261 3.75726 48.8672C3.79872 48.9175 3.8452 48.9636 3.89593 49.0046C3.93843 49.0561 3.98618 49.1031 4.03835 49.1447C4.07754 49.1916 4.12111 49.2347 4.16842 49.2734C4.21029 49.3246 4.25733 49.3714 4.30874 49.4131C4.35066 49.4639 4.39771 49.5105 4.44909 49.5518C4.49023 49.6015 4.53627 49.6471 4.58648 49.6876C4.62704 49.7368 4.67238 49.7818 4.72179 49.8221C4.76415 49.8737 4.81178 49.9209 4.86385 49.9627C4.90475 50.0119 4.95045 50.0569 5.00022 50.097C5.04207 50.1477 5.08899 50.194 5.14021 50.2351C5.18005 50.2832 5.22449 50.3273 5.27283 50.3669C5.31493 50.4183 5.36226 50.4654 5.414 50.5072C5.45594 50.558 5.503 50.6045 5.55439 50.6458C5.59414 50.6936 5.63843 50.7374 5.68658 50.7767C5.72874 50.8282 5.77614 50.8753 5.82795 50.9171C5.86957 50.9674 5.91622 51.0135 5.96712 51.0545C6.00805 51.1039 6.05383 51.1492 6.10372 51.1896C6.14372 51.2382 6.18839 51.2827 6.23704 51.3226C6.28084 51.3764 6.33034 51.4254 6.38461 51.4686C6.42503 51.5168 6.47009 51.5609 6.51909 51.6004C6.56024 51.6501 6.60629 51.6956 6.6565 51.7362C6.69619 51.7843 6.74046 51.8285 6.78865 51.8681C6.83182 51.9212 6.88053 51.9695 6.93389 52.0124C6.97474 52.0615 7.02039 52.1066 7.07012 52.1468C7.11148 52.1969 7.15781 52.2428 7.20836 52.2836C7.24926 52.333 7.29499 52.3782 7.34484 52.4186C7.38653 52.4692 7.4333 52.5155 7.48435 52.5567C7.52543 52.6064 7.5714 52.6519 7.62153 52.6925C7.66185 52.7414 7.7069 52.7863 7.75599 52.8265C7.79825 52.8781 7.84578 52.9254 7.89775 52.9673C7.94016 53.0186 7.98778 53.0654 8.03981 53.107C8.08054 53.1557 8.126 53.2004 8.17549 53.2402C8.35208 53.4535 8.61888 53.5894 8.91743 53.5894H47.5419C48.0736 53.5894 48.5046 53.1584 48.5046 52.6267V14.0022C48.5046 13.699 48.3644 13.4284 48.1452 13.252C48.103 13.2009 48.0555 13.1543 48.0037 13.1129C47.9632 13.0644 47.9179 13.0199 47.8687 12.9802C47.8286 12.9317 47.7838 12.8872 47.7351 12.8473C47.6932 12.7961 47.6462 12.7493 47.5948 12.7077C47.5531 12.6571 47.5063 12.6108 47.4553 12.5696C47.4142 12.5199 47.3682 12.4744 47.3181 12.4338C47.2766 12.3834 47.2301 12.3373 47.1793 12.2963C47.1383 12.2467 47.0923 12.2013 47.0422 12.1608C47.0001 12.1098 46.9529 12.0632 46.9013 12.0218C46.8622 11.9747 46.8186 11.9314 46.7713 11.8925C46.7288 11.8403 46.681 11.7926 46.6286 11.7503C46.5868 11.6996 46.54 11.6533 46.4888 11.6121C46.4463 11.5607 46.3984 11.5138 46.3462 11.4722C46.3076 11.4262 46.2649 11.3839 46.2185 11.3459C46.1763 11.2941 46.1289 11.2468 46.077 11.2048C46.0351 11.154 45.9882 11.1075 45.9369 11.0663C45.8956 11.0164 45.8493 10.9707 45.7989 10.93C45.7586 10.8812 45.7136 10.8365 45.6645 10.7965C45.622 10.7446 45.5742 10.6972 45.5219 10.6551C45.4811 10.6062 45.4356 10.5613 45.3861 10.5213C45.3458 10.4725 45.3009 10.4277 45.2519 10.3877C45.2093 10.3356 45.1613 10.288 45.1088 10.2458C45.0676 10.1961 45.0215 10.1505 44.9711 10.11C44.9293 10.0594 44.8825 10.0131 44.8313 9.97201C44.7914 9.92407 44.7469 9.88006 44.6986 9.84066C44.6568 9.7897 44.6098 9.7431 44.5586 9.70166C44.5168 9.65106 44.47 9.60479 44.4188 9.56365C44.3778 9.5141 44.332 9.46872 44.282 9.42825C44.2417 9.3793 44.1966 9.33441 44.1475 9.29427C44.1043 9.24143 44.0556 9.19328 44.0023 9.15067C43.9619 9.1024 43.917 9.05815 43.868 9.01859C43.8269 8.96871 43.7808 8.92304 43.7305 8.88234C43.6907 8.8341 43.6464 8.78979 43.5981 8.7501C43.555 8.69692 43.5063 8.64845 43.4529 8.60556C43.4123 8.55654 43.3669 8.51162 43.3174 8.47151C43.2758 8.42097 43.2292 8.37474 43.1783 8.3336C43.1372 8.28402 43.0913 8.23862 43.0412 8.19815C42.9991 8.14715 42.9519 8.10055 42.9003 8.05918C42.8598 8.01036 42.8145 7.96561 42.7652 7.92565C42.7249 7.87661 42.6798 7.83163 42.6307 7.79142C42.5878 7.73877 42.5393 7.69076 42.4863 7.64825C42.4452 7.59889 42.3992 7.55371 42.3491 7.51345C42.3076 7.46335 42.2611 7.41754 42.2103 7.37677C42.171 7.32936 42.1273 7.28578 42.0797 7.24667C42.0369 7.19407 41.9887 7.14608 41.9359 7.10356C41.8946 7.05365 41.8483 7.00798 41.7979 6.96731C41.756 6.91663 41.709 6.87032 41.6578 6.82915C41.6182 6.78156 41.5741 6.73785 41.5262 6.69867C41.4841 6.64711 41.4367 6.6 41.3848 6.55817C41.2085 6.34461 40.9417 6.2085 40.6432 6.2085Z" fill="white"/>
</g>
<defs>
<linearGradient id="paint0_linear_80_944" x1="3.43216" y1="44.105" x2="36.4516" y2="11.0856" gradientUnits="userSpaceOnUse">
<stop stop-color="#053854"/>
<stop offset="0.36" stop-color="#034369"/>
<stop offset="0.99" stop-color="#005B97"/>
</linearGradient>
<clipPath id="clip0_80_944">
<rect width="218.826" height="57.1" fill="white" transform="translate(0 0.651855)"/>
</clipPath>
</defs>
</svg>
