<svg id="Layer_1" data-name="Layer 1" xmlns="http://www.w3.org/2000/svg" xmlns:xlink="http://www.w3.org/1999/xlink" viewBox="0 0 1454.67 331"><defs><style>.cls-1{fill:#fff;}.cls-2{fill:url(#linear-gradient);}.cls-3{fill:url(#linear-gradient-2);}.cls-4{fill:url(#linear-gradient-3);}.cls-5{fill:url(#linear-gradient-4);}.cls-6{fill:url(#linear-gradient-5);}.cls-7{fill:url(#linear-gradient-6);}.cls-8{fill:url(#linear-gradient-7);}.cls-9{fill:url(#linear-gradient-8);}.cls-10{fill:url(#linear-gradient-9);}.cls-11{fill:url(#linear-gradient-10);}.cls-12{fill:url(#linear-gradient-11);}.cls-13{fill:url(#linear-gradient-12);}.cls-14{fill:url(#linear-gradient-13);}.cls-15{fill:url(#linear-gradient-14);}.cls-16{fill:url(#linear-gradient-15);}.cls-17{fill:url(#linear-gradient-16);}.cls-18{fill:url(#linear-gradient-17);}.cls-19{fill:url(#linear-gradient-18);}.cls-20{fill:url(#linear-gradient-19);}.cls-21{fill:url(#linear-gradient-20);}.cls-22{fill:url(#linear-gradient-21);}.cls-23{fill:url(#linear-gradient-22);}.cls-24{fill:url(#linear-gradient-23);}.cls-25{fill:url(#linear-gradient-24);}.cls-26{fill:url(#linear-gradient-25);}.cls-27{fill:url(#linear-gradient-26);}.cls-28{fill:url(#linear-gradient-27);}.cls-29{fill:url(#linear-gradient-28);}.cls-30{fill:url(#linear-gradient-29);}.cls-31{fill:url(#linear-gradient-30);}.cls-32{fill:url(#linear-gradient-31);}.cls-33{fill:url(#linear-gradient-32);}.cls-34{fill:url(#linear-gradient-33);}.cls-35{fill:url(#linear-gradient-34);}.cls-36{fill:url(#linear-gradient-35);}.cls-37{fill:url(#linear-gradient-36);}.cls-38{fill:url(#linear-gradient-37);}.cls-39{fill:url(#linear-gradient-38);}.cls-40{fill:url(#linear-gradient-39);}.cls-41{fill:url(#linear-gradient-40);}.cls-42{fill:url(#linear-gradient-41);}.cls-43{fill:url(#linear-gradient-42);}.cls-44{fill:url(#linear-gradient-43);}.cls-45{fill:url(#linear-gradient-44);}.cls-46{fill:url(#linear-gradient-45);}.cls-47{fill:url(#linear-gradient-46);}.cls-48{fill:url(#linear-gradient-47);}.cls-49{fill:url(#linear-gradient-48);}.cls-50{fill:url(#linear-gradient-49);}.cls-51{fill:url(#linear-gradient-50);}.cls-52{fill:url(#linear-gradient-51);}.cls-53{fill:url(#linear-gradient-52);}</style><linearGradient id="linear-gradient" x1="21.06" y1="260.4" x2="240.57" y2="40.89" gradientUnits="userSpaceOnUse"><stop offset="0" stop-color="#7f7f7f"/><stop offset="0.25" stop-color="#828282"/><stop offset="0.42" stop-color="#8b8b8b"/><stop offset="0.57" stop-color="#9a9a9a"/><stop offset="0.7" stop-color="#b0b0b0"/><stop offset="0.83" stop-color="#cbcbcb"/><stop offset="0.94" stop-color="#ededed"/><stop offset="0.99" stop-color="#fff"/></linearGradient><linearGradient id="linear-gradient-2" x1="21.98" y1="261.3" x2="241.39" y2="41.9" gradientUnits="userSpaceOnUse"><stop offset="0" stop-color="#7f7f7f"/><stop offset="0.24" stop-color="#828282"/><stop offset="0.42" stop-color="#8b8b8b"/><stop offset="0.57" stop-color="#9b9b9b"/><stop offset="0.7" stop-color="#b0b0b0"/><stop offset="0.99" stop-color="#fff"/><stop offset="1" stop-color="#fff"/></linearGradient><linearGradient id="linear-gradient-3" x1="22.9" y1="262.21" x2="242.2" y2="42.91" gradientUnits="userSpaceOnUse"><stop offset="0" stop-color="#7f7f7f"/><stop offset="0.23" stop-color="#828282"/><stop offset="0.41" stop-color="#8b8b8b"/><stop offset="0.56" stop-color="#9b9b9b"/><stop offset="0.7" stop-color="#b2b2b2"/><stop offset="0.99" stop-color="#fff"/><stop offset="1" stop-color="#fff"/></linearGradient><linearGradient id="linear-gradient-4" x1="23.82" y1="263.12" x2="243.02" y2="43.91" gradientUnits="userSpaceOnUse"><stop offset="0" stop-color="#7f7f7f"/><stop offset="0.23" stop-color="#828282"/><stop offset="0.4" stop-color="#8c8c8c"/><stop offset="0.56" stop-color="#9c9c9c"/><stop offset="0.7" stop-color="#b3b3b3"/><stop offset="0.99" stop-color="#fff"/><stop offset="1" stop-color="#fff"/></linearGradient><linearGradient id="linear-gradient-5" x1="24.73" y1="264.03" x2="243.84" y2="44.92" gradientUnits="userSpaceOnUse"><stop offset="0" stop-color="#7f7f7f"/><stop offset="0.22" stop-color="#828282"/><stop offset="0.39" stop-color="#8c8c8c"/><stop offset="0.55" stop-color="#9d9d9d"/><stop offset="0.7" stop-color="#b4b4b4"/><stop offset="0.99" stop-color="#fff"/><stop offset="1" stop-color="#fff"/></linearGradient><linearGradient id="linear-gradient-6" x1="25.65" y1="264.94" x2="244.66" y2="45.93" gradientUnits="userSpaceOnUse"><stop offset="0" stop-color="#7f7f7f"/><stop offset="0.21" stop-color="#828282"/><stop offset="0.39" stop-color="#8d8d8d"/><stop offset="0.55" stop-color="#9e9e9e"/><stop offset="0.7" stop-color="#b5b5b5"/><stop offset="0.99" stop-color="#fff"/><stop offset="1" stop-color="#fff"/></linearGradient><linearGradient id="linear-gradient-7" x1="26.57" y1="265.84" x2="245.48" y2="46.93" gradientUnits="userSpaceOnUse"><stop offset="0" stop-color="#7f7f7f"/><stop offset="0.2" stop-color="#828282"/><stop offset="0.38" stop-color="#8d8d8d"/><stop offset="0.55" stop-color="#9f9f9f"/><stop offset="0.7" stop-color="#b7b7b7"/><stop offset="0.99" stop-color="#fff"/><stop offset="1" stop-color="#fff"/></linearGradient><linearGradient id="linear-gradient-8" x1="27.49" y1="266.75" x2="246.3" y2="47.94" gradientUnits="userSpaceOnUse"><stop offset="0" stop-color="#7f7f7f"/><stop offset="0.2" stop-color="#838383"/><stop offset="0.37" stop-color="#8e8e8e"/><stop offset="0.55" stop-color="#a0a0a0"/><stop offset="0.7" stop-color="#b8b8b8"/><stop offset="0.99" stop-color="#fff"/><stop offset="1" stop-color="#fff"/></linearGradient><linearGradient id="linear-gradient-9" x1="28.4" y1="267.66" x2="247.12" y2="48.95" gradientUnits="userSpaceOnUse"><stop offset="0" stop-color="#7f7f7f"/><stop offset="0.19" stop-color="#838383"/><stop offset="0.37" stop-color="#8e8e8e"/><stop offset="0.55" stop-color="#a1a1a1"/><stop offset="0.7" stop-color="#b9b9b9"/><stop offset="0.99" stop-color="#fff"/><stop offset="1" stop-color="#fff"/></linearGradient><linearGradient id="linear-gradient-10" x1="29.32" y1="268.57" x2="247.94" y2="49.95" gradientUnits="userSpaceOnUse"><stop offset="0" stop-color="#7f7f7f"/><stop offset="0.18" stop-color="#838383"/><stop offset="0.37" stop-color="#8f8f8f"/><stop offset="0.55" stop-color="#a3a3a3"/><stop offset="0.7" stop-color="#bababa"/><stop offset="0.99" stop-color="#fff"/><stop offset="1" stop-color="#fff"/></linearGradient><linearGradient id="linear-gradient-11" x1="30.24" y1="269.48" x2="248.75" y2="50.96" gradientUnits="userSpaceOnUse"><stop offset="0" stop-color="#7f7f7f"/><stop offset="0.18" stop-color="#838383"/><stop offset="0.36" stop-color="#8f8f8f"/><stop offset="0.54" stop-color="#a4a4a4"/><stop offset="0.7" stop-color="#bcbcbc"/><stop offset="0.99" stop-color="#fff"/><stop offset="1" stop-color="#fff"/></linearGradient><linearGradient id="linear-gradient-12" x1="31.15" y1="270.39" x2="249.57" y2="51.97" gradientUnits="userSpaceOnUse"><stop offset="0" stop-color="#7f7f7f"/><stop offset="0.17" stop-color="#838383"/><stop offset="0.36" stop-color="#909090"/><stop offset="0.54" stop-color="#a5a5a5"/><stop offset="0.7" stop-color="#bdbdbd"/><stop offset="0.99" stop-color="#fff"/><stop offset="1" stop-color="#fff"/></linearGradient><linearGradient id="linear-gradient-13" x1="32.07" y1="271.29" x2="250.39" y2="52.97" gradientUnits="userSpaceOnUse"><stop offset="0" stop-color="#7f7f7f"/><stop offset="0.17" stop-color="#848484"/><stop offset="0.35" stop-color="#919191"/><stop offset="0.55" stop-color="#a7a7a7"/><stop offset="0.7" stop-color="#bebebe"/><stop offset="0.99" stop-color="#fff"/><stop offset="1" stop-color="#fff"/></linearGradient><linearGradient id="linear-gradient-14" x1="32.99" y1="272.2" x2="251.21" y2="53.98" gradientUnits="userSpaceOnUse"><stop offset="0" stop-color="#7f7f7f"/><stop offset="0.16" stop-color="#848484"/><stop offset="0.35" stop-color="#929292"/><stop offset="0.55" stop-color="#a9a9a9"/><stop offset="0.7" stop-color="#bfbfbf"/><stop offset="0.99" stop-color="#fff"/><stop offset="1" stop-color="#fff"/></linearGradient><linearGradient id="linear-gradient-15" x1="33.91" y1="273.11" x2="252.03" y2="54.99" gradientUnits="userSpaceOnUse"><stop offset="0" stop-color="#7f7f7f"/><stop offset="0.16" stop-color="#848484"/><stop offset="0.35" stop-color="#939393"/><stop offset="0.55" stop-color="#aaa"/><stop offset="0.7" stop-color="#c1c1c1"/><stop offset="0.99" stop-color="#fff"/><stop offset="1" stop-color="#fff"/></linearGradient><linearGradient id="linear-gradient-16" x1="34.82" y1="274.02" x2="252.85" y2="55.99" gradientUnits="userSpaceOnUse"><stop offset="0" stop-color="#7f7f7f"/><stop offset="0.16" stop-color="#848484"/><stop offset="0.35" stop-color="#939393"/><stop offset="0.56" stop-color="#acacac"/><stop offset="0.7" stop-color="#c2c2c2"/><stop offset="0.99" stop-color="#fff"/><stop offset="1" stop-color="#fff"/></linearGradient><linearGradient id="linear-gradient-17" x1="35.74" y1="274.93" x2="253.67" y2="57" gradientUnits="userSpaceOnUse"><stop offset="0" stop-color="#7f7f7f"/><stop offset="0.15" stop-color="#858585"/><stop offset="0.35" stop-color="#959595"/><stop offset="0.56" stop-color="#afafaf"/><stop offset="0.7" stop-color="#c3c3c3"/><stop offset="0.99" stop-color="#fff"/><stop offset="1" stop-color="#fff"/></linearGradient><linearGradient id="linear-gradient-18" x1="36.66" y1="275.83" x2="254.49" y2="58.01" gradientUnits="userSpaceOnUse"><stop offset="0" stop-color="#7f7f7f"/><stop offset="0.15" stop-color="#858585"/><stop offset="0.35" stop-color="#969696"/><stop offset="0.57" stop-color="#b1b1b1"/><stop offset="0.7" stop-color="#c4c4c4"/><stop offset="0.99" stop-color="#fff"/><stop offset="1" stop-color="#fff"/></linearGradient><linearGradient id="linear-gradient-19" x1="37.58" y1="276.74" x2="255.3" y2="59.01" gradientUnits="userSpaceOnUse"><stop offset="0" stop-color="#7f7f7f"/><stop offset="0.15" stop-color="#858585"/><stop offset="0.35" stop-color="#979797"/><stop offset="0.58" stop-color="#b4b4b4"/><stop offset="0.7" stop-color="#c6c6c6"/><stop offset="0.99" stop-color="#fff"/><stop offset="1" stop-color="#fff"/></linearGradient><linearGradient id="linear-gradient-20" x1="38.49" y1="277.65" x2="256.12" y2="60.02" gradientUnits="userSpaceOnUse"><stop offset="0" stop-color="#7f7f7f"/><stop offset="0.14" stop-color="#868686"/><stop offset="0.35" stop-color="#989898"/><stop offset="0.59" stop-color="#b7b7b7"/><stop offset="0.7" stop-color="#c7c7c7"/><stop offset="0.99" stop-color="#fff"/><stop offset="1" stop-color="#fff"/></linearGradient><linearGradient id="linear-gradient-21" x1="39.41" y1="278.56" x2="256.94" y2="61.03" gradientUnits="userSpaceOnUse"><stop offset="0" stop-color="#7f7f7f"/><stop offset="0.14" stop-color="#868686"/><stop offset="0.36" stop-color="#9a9a9a"/><stop offset="0.61" stop-color="#bababa"/><stop offset="0.7" stop-color="#c8c8c8"/><stop offset="0.99" stop-color="#fff"/><stop offset="1" stop-color="#fff"/></linearGradient><linearGradient id="linear-gradient-22" x1="40.33" y1="279.47" x2="257.76" y2="62.04" gradientUnits="userSpaceOnUse"><stop offset="0" stop-color="#7f7f7f"/><stop offset="0.14" stop-color="#878787"/><stop offset="0.36" stop-color="#9c9c9c"/><stop offset="0.63" stop-color="#bebebe"/><stop offset="0.7" stop-color="#c9c9c9"/><stop offset="0.99" stop-color="#fff"/><stop offset="1" stop-color="#fff"/></linearGradient><linearGradient id="linear-gradient-23" x1="41.25" y1="280.38" x2="258.58" y2="63.04" gradientUnits="userSpaceOnUse"><stop offset="0" stop-color="#7f7f7f"/><stop offset="0.14" stop-color="#878787"/><stop offset="0.37" stop-color="#9e9e9e"/><stop offset="0.64" stop-color="#c3c3c3"/><stop offset="0.7" stop-color="#cbcbcb"/><stop offset="0.99" stop-color="#fff"/><stop offset="1" stop-color="#fff"/></linearGradient><linearGradient id="linear-gradient-24" x1="42.16" y1="281.28" x2="259.4" y2="64.05" gradientUnits="userSpaceOnUse"><stop offset="0" stop-color="#7f7f7f"/><stop offset="0.14" stop-color="#888"/><stop offset="0.38" stop-color="#a0a0a0"/><stop offset="0.67" stop-color="#c8c8c8"/><stop offset="0.7" stop-color="#ccc"/><stop offset="0.99" stop-color="#fff"/><stop offset="1" stop-color="#fff"/></linearGradient><linearGradient id="linear-gradient-25" x1="43.08" y1="282.19" x2="260.22" y2="65.06" gradientUnits="userSpaceOnUse"><stop offset="0" stop-color="#7f7f7f"/><stop offset="0.15" stop-color="#898989"/><stop offset="0.39" stop-color="#a3a3a3"/><stop offset="0.7" stop-color="#cdcdcd"/><stop offset="0.99" stop-color="#fff"/><stop offset="1" stop-color="#fff"/></linearGradient><linearGradient id="linear-gradient-26" x1="44" y1="283.1" x2="261.04" y2="66.06" gradientUnits="userSpaceOnUse"><stop offset="0" stop-color="#7f7f7f"/><stop offset="0.15" stop-color="#8a8a8a"/><stop offset="0.41" stop-color="#a6a6a6"/><stop offset="0.7" stop-color="#cecece"/><stop offset="0.99" stop-color="#fff"/><stop offset="1" stop-color="#fff"/></linearGradient><linearGradient id="linear-gradient-27" x1="44.92" y1="284.01" x2="261.85" y2="67.07" gradientUnits="userSpaceOnUse"><stop offset="0" stop-color="#7f7f7f"/><stop offset="0.15" stop-color="#8b8b8b"/><stop offset="0.43" stop-color="#aaa"/><stop offset="0.7" stop-color="#d0d0d0"/><stop offset="0.99" stop-color="#fff"/><stop offset="1" stop-color="#fff"/></linearGradient><linearGradient id="linear-gradient-28" x1="45.83" y1="284.92" x2="262.67" y2="68.08" gradientUnits="userSpaceOnUse"><stop offset="0" stop-color="#7f7f7f"/><stop offset="0.16" stop-color="#8c8c8c"/><stop offset="0.46" stop-color="#afafaf"/><stop offset="0.7" stop-color="#d1d1d1"/><stop offset="0.99" stop-color="#fff"/><stop offset="1" stop-color="#fff"/></linearGradient><linearGradient id="linear-gradient-29" x1="46.75" y1="285.82" x2="263.49" y2="69.08" gradientUnits="userSpaceOnUse"><stop offset="0" stop-color="#7f7f7f"/><stop offset="0.17" stop-color="#8e8e8e"/><stop offset="0.49" stop-color="#b6b6b6"/><stop offset="0.7" stop-color="#d2d2d2"/><stop offset="0.99" stop-color="#fff"/><stop offset="1" stop-color="#fff"/></linearGradient><linearGradient id="linear-gradient-30" x1="47.67" y1="286.73" x2="264.31" y2="70.09" gradientUnits="userSpaceOnUse"><stop offset="0" stop-color="#7f7f7f"/><stop offset="0.18" stop-color="#909090"/><stop offset="0.54" stop-color="#bebebe"/><stop offset="0.7" stop-color="#d3d3d3"/><stop offset="0.99" stop-color="#fff"/><stop offset="1" stop-color="#fff"/></linearGradient><linearGradient id="linear-gradient-31" x1="48.58" y1="287.64" x2="265.13" y2="71.1" gradientUnits="userSpaceOnUse"><stop offset="0" stop-color="#7f7f7f"/><stop offset="0.2" stop-color="#949494"/><stop offset="0.61" stop-color="#c8c8c8"/><stop offset="0.7" stop-color="#d5d5d5"/><stop offset="0.99" stop-color="#fff"/><stop offset="1" stop-color="#fff"/></linearGradient><linearGradient id="linear-gradient-32" x1="49.5" y1="288.55" x2="265.95" y2="72.1" gradientUnits="userSpaceOnUse"><stop offset="0" stop-color="#7f7f7f"/><stop offset="0.23" stop-color="#989898"/><stop offset="0.7" stop-color="#d6d6d6"/><stop offset="0.99" stop-color="#fff"/><stop offset="1" stop-color="#fff"/></linearGradient><linearGradient id="linear-gradient-33" x1="50.42" y1="289.46" x2="266.77" y2="73.11" gradientUnits="userSpaceOnUse"><stop offset="0" stop-color="#7f7f7f"/><stop offset="0.28" stop-color="#9f9f9f"/><stop offset="0.7" stop-color="#d7d7d7"/><stop offset="0.99" stop-color="#fff"/><stop offset="1" stop-color="#fff"/></linearGradient><linearGradient id="linear-gradient-34" x1="51.34" y1="290.37" x2="267.59" y2="74.12" gradientUnits="userSpaceOnUse"><stop offset="0" stop-color="#7f7f7f"/><stop offset="0.36" stop-color="#aaa"/><stop offset="0.7" stop-color="#d8d8d8"/><stop offset="0.99" stop-color="#fff"/><stop offset="1" stop-color="#fff"/></linearGradient><linearGradient id="linear-gradient-35" x1="52.25" y1="291.27" x2="268.4" y2="75.12" gradientUnits="userSpaceOnUse"><stop offset="0" stop-color="#7f7f7f"/><stop offset="0.53" stop-color="#c3c3c3"/><stop offset="0.7" stop-color="#dadada"/><stop offset="0.99" stop-color="#fff"/><stop offset="1" stop-color="#fff"/></linearGradient><linearGradient id="linear-gradient-36" x1="53.17" y1="292.18" x2="269.22" y2="76.13" gradientUnits="userSpaceOnUse"><stop offset="0" stop-color="#7f7f7f"/><stop offset="0.7" stop-color="#dbdbdb"/><stop offset="0.99" stop-color="#fff"/><stop offset="1" stop-color="#fff"/></linearGradient><linearGradient id="linear-gradient-37" x1="54.09" y1="293.09" x2="270.04" y2="77.14" gradientUnits="userSpaceOnUse"><stop offset="0" stop-color="#7f7f7f"/><stop offset="0.7" stop-color="#dcdcdc"/><stop offset="0.99" stop-color="#fff"/><stop offset="1" stop-color="#fff"/></linearGradient><linearGradient id="linear-gradient-38" x1="55.01" y1="294" x2="270.86" y2="78.14" gradientUnits="userSpaceOnUse"><stop offset="0" stop-color="#7f7f7f"/><stop offset="0.7" stop-color="#ddd"/><stop offset="0.99" stop-color="#fff"/><stop offset="1" stop-color="#fff"/></linearGradient><linearGradient id="linear-gradient-39" x1="55.92" y1="294.91" x2="271.68" y2="79.15" gradientUnits="userSpaceOnUse"><stop offset="0" stop-color="#7f7f7f"/><stop offset="0.3" stop-color="#aaa"/><stop offset="0.7" stop-color="#dfdfdf"/><stop offset="0.99" stop-color="#fff"/><stop offset="1" stop-color="#fff"/></linearGradient><linearGradient id="linear-gradient-40" x1="56.84" y1="295.82" x2="272.5" y2="80.16" gradientUnits="userSpaceOnUse"><stop offset="0" stop-color="#7f7f7f"/><stop offset="0.42" stop-color="#bbb"/><stop offset="0.7" stop-color="#e0e0e0"/><stop offset="0.99" stop-color="#fff"/><stop offset="1" stop-color="#fff"/></linearGradient><linearGradient id="linear-gradient-41" x1="57.76" y1="296.72" x2="273.32" y2="81.16" gradientUnits="userSpaceOnUse"><stop offset="0" stop-color="#7f7f7f"/><stop offset="0.48" stop-color="#c5c5c5"/><stop offset="0.7" stop-color="#e1e1e1"/><stop offset="0.99" stop-color="#fff"/><stop offset="1" stop-color="#fff"/></linearGradient><linearGradient id="linear-gradient-42" x1="58.68" y1="297.63" x2="274.14" y2="82.17" gradientUnits="userSpaceOnUse"><stop offset="0" stop-color="#7f7f7f"/><stop offset="0.12" stop-color="#929292"/><stop offset="0.51" stop-color="#cbcbcb"/><stop offset="0.7" stop-color="#e2e2e2"/><stop offset="0.99" stop-color="#fff"/><stop offset="1" stop-color="#fff"/></linearGradient><linearGradient id="linear-gradient-43" x1="59.59" y1="298.54" x2="274.95" y2="83.18" gradientUnits="userSpaceOnUse"><stop offset="0" stop-color="#7f7f7f"/><stop offset="0.21" stop-color="#a1a1a1"/><stop offset="0.54" stop-color="#d1d1d1"/><stop offset="0.7" stop-color="#e4e4e4"/><stop offset="0.99" stop-color="#fff"/><stop offset="1" stop-color="#fff"/></linearGradient><linearGradient id="linear-gradient-44" x1="60.51" y1="299.45" x2="275.77" y2="84.18" gradientUnits="userSpaceOnUse"><stop offset="0" stop-color="#7f7f7f"/><stop offset="0.26" stop-color="#ababab"/><stop offset="0.55" stop-color="#d5d5d5"/><stop offset="0.7" stop-color="#e5e5e5"/><stop offset="0.99" stop-color="#fff"/><stop offset="1" stop-color="#fff"/></linearGradient><linearGradient id="linear-gradient-45" x1="61.43" y1="300.36" x2="276.59" y2="85.19" gradientUnits="userSpaceOnUse"><stop offset="0" stop-color="#7f7f7f"/><stop offset="0.31" stop-color="#b3b3b3"/><stop offset="0.56" stop-color="#d8d8d8"/><stop offset="0.7" stop-color="#e6e6e6"/><stop offset="0.99" stop-color="#fff"/><stop offset="1" stop-color="#fff"/></linearGradient><linearGradient id="linear-gradient-46" x1="62.35" y1="301.26" x2="277.41" y2="86.2" gradientUnits="userSpaceOnUse"><stop offset="0" stop-color="#7f7f7f"/><stop offset="0.03" stop-color="#848484"/><stop offset="0.34" stop-color="#b9b9b9"/><stop offset="0.57" stop-color="#dadada"/><stop offset="0.7" stop-color="#e7e7e7"/><stop offset="0.99" stop-color="#fff"/><stop offset="1" stop-color="#fff"/></linearGradient><linearGradient id="linear-gradient-47" x1="63.26" y1="302.17" x2="278.23" y2="87.21" gradientUnits="userSpaceOnUse"><stop offset="0" stop-color="#7f7f7f"/><stop offset="0.09" stop-color="#8f8f8f"/><stop offset="0.37" stop-color="silver"/><stop offset="0.58" stop-color="#dedede"/><stop offset="0.7" stop-color="#e9e9e9"/><stop offset="0.99" stop-color="#fff"/><stop offset="1" stop-color="#fff"/></linearGradient><linearGradient id="linear-gradient-48" x1="64.18" y1="303.08" x2="279.05" y2="88.21" gradientUnits="userSpaceOnUse"><stop offset="0" stop-color="#7f7f7f"/><stop offset="0.13" stop-color="#989898"/><stop offset="0.39" stop-color="#c4c4c4"/><stop offset="0.58" stop-color="#e0e0e0"/><stop offset="0.7" stop-color="#eaeaea"/><stop offset="0.99" stop-color="#fff"/><stop offset="1" stop-color="#fff"/></linearGradient><linearGradient id="linear-gradient-49" x1="65.1" y1="303.99" x2="279.87" y2="89.22" gradientUnits="userSpaceOnUse"><stop offset="0" stop-color="#7f7f7f"/><stop offset="0.16" stop-color="#9f9f9f"/><stop offset="0.4" stop-color="#c8c8c8"/><stop offset="0.59" stop-color="#e2e2e2"/><stop offset="0.7" stop-color="#ebebeb"/><stop offset="0.99" stop-color="#fff"/><stop offset="1" stop-color="#fff"/></linearGradient><linearGradient id="linear-gradient-50" x1="66.01" y1="304.9" x2="280.69" y2="90.23" gradientUnits="userSpaceOnUse"><stop offset="0" stop-color="#7f7f7f"/><stop offset="0.19" stop-color="#a6a6a6"/><stop offset="0.41" stop-color="#ccc"/><stop offset="0.59" stop-color="#e3e3e3"/><stop offset="0.7" stop-color="#ececec"/><stop offset="0.99" stop-color="#fff"/><stop offset="1" stop-color="#fff"/></linearGradient><linearGradient id="linear-gradient-51" x1="66.93" y1="305.81" x2="281.51" y2="91.23" gradientUnits="userSpaceOnUse"><stop offset="0" stop-color="#7f7f7f"/><stop offset="0.22" stop-color="#adadad"/><stop offset="0.43" stop-color="#d0d0d0"/><stop offset="0.59" stop-color="#e6e6e6"/><stop offset="0.7" stop-color="#eee"/><stop offset="0.99" stop-color="#fff"/><stop offset="1" stop-color="#fff"/></linearGradient><linearGradient id="linear-gradient-52" x1="67.85" y1="306.71" x2="282.32" y2="92.24" gradientUnits="userSpaceOnUse"><stop offset="0" stop-color="#7f7f7f"/><stop offset="0.02" stop-color="#848484"/><stop offset="0.24" stop-color="#b2b2b2"/><stop offset="0.43" stop-color="#d3d3d3"/><stop offset="0.59" stop-color="#e8e8e8"/><stop offset="0.7" stop-color="#efefef"/><stop offset="1" stop-color="#fff"/></linearGradient></defs><path class="cls-1" d="M589.38,132.2a31.3,31.3,0,0,0-12.06-12.8q-7.76-4.56-20.56-4.56-11.58,0-19,3.45A27.92,27.92,0,0,0,526,128.51,48.47,48.47,0,0,0,519.45,145c-.18.88-.36,1.77-.53,2.67a55.16,55.16,0,0,0-5.13-15.47,31.3,31.3,0,0,0-12.06-12.8q-7.77-4.56-20.56-4.56-11.58,0-19.09,3.45a27.83,27.83,0,0,0-11.94,10.22,42.35,42.35,0,0,0-4.92,10.73V117.3h-19.7V240.42h19.7V189q0-17.73,2.09-28.94t5.79-17.6q3.69-6.4,9.11-8.87a30,30,0,0,1,12.55-2.46q10.35,0,15.89,3.33a18.25,18.25,0,0,1,7.87,9.72A47.88,47.88,0,0,1,501,159.78q.12,9.22.12,20.56v60.08h19.94V189A184.37,184.37,0,0,1,522.9,160q1.85-11.19,5.66-17.6a21.08,21.08,0,0,1,9.36-8.87,30.36,30.36,0,0,1,12.44-2.46q10.33,0,15.88,3.33a18.27,18.27,0,0,1,7.88,9.72,49.61,49.61,0,0,1,2.58,15.64q.25,9.22.25,20.56v60.08h19.7V176.89a194.19,194.19,0,0,0-1.48-25.11A58.35,58.35,0,0,0,589.38,132.2Z"/><path class="cls-1" d="M720.26,168.27a75.2,75.2,0,0,0-3-21.67,45.65,45.65,0,0,0-9-16.86,41,41,0,0,0-15.26-11q-9.24-3.93-22.29-3.94A57.44,57.44,0,0,0,648.11,119a50,50,0,0,0-16.38,10.83,47.51,47.51,0,0,0-10,14.77,40.77,40.77,0,0,0-3.44,16H638a21.19,21.19,0,0,1,2.71-10.83,28.18,28.18,0,0,1,7.14-8.13,32.61,32.61,0,0,1,10.22-5.29A38.79,38.79,0,0,1,670,134.54q14.78,0,22.66,7.76t7.87,22l-3.19.23q-6.17.24-13.06.74l-13.54,1a142.14,142.14,0,0,0-21.3,2.59,67.05,67.05,0,0,0-18.71,6.52,36,36,0,0,0-13.17,11.82q-4.94,7.4-4.93,18.47,0,16.74,9.48,27t28.2,10.22q18.21,0,29.79-5.17T698.34,224c.86-1.09,1.64-2.22,2.4-3.36.07,1.61.18,3.1.31,4.47a20.09,20.09,0,0,0,2.59,8.62,12.13,12.13,0,0,0,6.15,5q4.07,1.6,11.2,1.6h7.15v-19.7h-7.88ZM692.68,212A32.1,32.1,0,0,1,680,221.83q-8.26,3.81-21.55,3.82-12.56,0-19.33-4.31t-6.77-15.64a16.41,16.41,0,0,1,3.08-10.22,22.65,22.65,0,0,1,8.49-6.65,45.27,45.27,0,0,1,12.44-3.69q7-1.11,14.9-1.6c3.6-.33,7.71-.65,12.31-1s8.9-.61,12.92-.86l4.07-.24v2.33a64.84,64.84,0,0,1-1.73,14.78A36.49,36.49,0,0,1,692.68,212Z"/><path class="cls-1" d="M824.66,120.26a27.25,27.25,0,0,0-12.31,9.23,37.07,37.07,0,0,0-6.15,14.11l-2-26.3H750.79v19.21h36.44v84.7H750.79v19.21h116V221.21H806.93V183.78a240.68,240.68,0,0,1,1-24.25q1-9.22,4.56-14.28t10.71-6.65q7.14-1.59,19.7-1.6h23.88V117.3H844.11Q832.29,117.3,824.66,120.26Z"/><path class="cls-1" d="M1045.16,132.2a31.39,31.39,0,0,0-12.07-12.8q-7.75-4.56-20.56-4.56-11.58,0-19,3.45a28,28,0,0,0-11.82,10.22A48.46,48.46,0,0,0,975.23,145q-.29,1.32-.54,2.67a55.16,55.16,0,0,0-5.13-15.47,31.3,31.3,0,0,0-12.06-12.8q-7.75-4.56-20.56-4.56-11.58,0-19.09,3.45a27.89,27.89,0,0,0-11.94,10.22A42.35,42.35,0,0,0,901,139.24V117.3h-19.7V240.42H901V189q0-17.73,2.09-28.94t5.79-17.6q3.69-6.4,9.11-8.87a30.07,30.07,0,0,1,12.56-2.46q10.34,0,15.88,3.33a18.31,18.31,0,0,1,7.88,9.72,48.17,48.17,0,0,1,2.46,15.64q.12,9.22.12,20.56v60.08h20V189q0-17.73,1.84-28.94t5.67-17.6a21,21,0,0,1,9.35-8.87,30.36,30.36,0,0,1,12.44-2.46q10.33,0,15.88,3.33a18.27,18.27,0,0,1,7.88,9.72,49.61,49.61,0,0,1,2.58,15.64q.26,9.22.25,20.56v60.08h19.7V176.89a194.19,194.19,0,0,0-1.48-25.11A58.35,58.35,0,0,0,1045.16,132.2Z"/><path class="cls-1" d="M1126,114.84q-26.83,0-42.23,17.11t-15.39,46.91q0,30,15.39,47t42.23,17q22.41,0,36.81-11.69t19.09-32.88h-19.7q-3.21,13.55-12.31,20.32T1126,225.4q-19,0-28.56-11.7Q1089,203.37,1088,184h95.65l.25-5.17q0-29.79-15.39-46.91T1126,114.84Zm0,17.48q19.45,0,28.93,11.7,6.94,8.56,8.79,23.27h-75.17q1.89-14.52,8.89-23.15Q1107.08,132.32,1126,132.32Z"/><path class="cls-1" d="M1271.81,98.84q0-19.95-8.5-29.06t-26.47-9.11h-37.92v19.7H1243a38.44,38.44,0,0,1,4.93.24,4.33,4.33,0,0,1,2.7,1.36,5.34,5.34,0,0,1,1.23,3,41.7,41.7,0,0,1,.25,5.3v131h-48v19.21h115.72V221.21h-48Z"/><path class="cls-1" d="M1442.45,220.72V168.27a75.2,75.2,0,0,0-3-21.67,45.65,45.65,0,0,0-9-16.86,41,41,0,0,0-15.26-11q-9.24-3.93-22.29-3.94A57.48,57.48,0,0,0,1370.3,119a49.85,49.85,0,0,0-16.37,10.83,47.37,47.37,0,0,0-10,14.77,40.77,40.77,0,0,0-3.44,16h19.69a21.19,21.19,0,0,1,2.71-10.83,28.18,28.18,0,0,1,7.14-8.13,32.61,32.61,0,0,1,10.22-5.29,38.79,38.79,0,0,1,11.94-1.85q14.77,0,22.66,7.76t7.87,22l-3.19.23q-6.16.24-13,.74l-13.55,1a142.14,142.14,0,0,0-21.3,2.59,67.17,67.17,0,0,0-18.71,6.52,36,36,0,0,0-13.17,11.82q-4.93,7.4-4.93,18.47,0,16.74,9.48,27t28.2,10.22q18.21,0,29.79-5.17T1420.53,224c.86-1.09,1.64-2.22,2.4-3.36.07,1.61.18,3.1.31,4.47a20.09,20.09,0,0,0,2.59,8.62,12.13,12.13,0,0,0,6.15,5q4.07,1.6,11.2,1.6h7.15v-19.7ZM1414.87,212a32.1,32.1,0,0,1-12.68,9.85q-8.26,3.81-21.55,3.82-12.56,0-19.33-4.31t-6.77-15.64a16.41,16.41,0,0,1,3.08-10.22,22.65,22.65,0,0,1,8.49-6.65,45.27,45.27,0,0,1,12.44-3.69q7-1.11,14.9-1.6c3.6-.33,7.71-.65,12.31-1s8.9-.61,12.92-.86l4.07-.24v2.33a64.84,64.84,0,0,1-1.73,14.78A36.49,36.49,0,0,1,1414.87,212Z"/><rect class="cls-2" x="4.34" y="7.56" width="269.56" height="269.56" rx="6.39"/><rect class="cls-3" x="5.26" y="8.47" width="269.56" height="269.56" rx="6.39"/><rect class="cls-4" x="6.18" y="9.38" width="269.56" height="269.56" rx="6.39"/><rect class="cls-5" x="7.09" y="10.29" width="269.56" height="269.56" rx="6.39"/><rect class="cls-6" x="8.01" y="11.19" width="269.56" height="269.56" rx="6.39"/><rect class="cls-7" x="8.93" y="12.1" width="269.56" height="269.56" rx="6.39"/><rect class="cls-8" x="9.85" y="13.01" width="269.56" height="269.56" rx="6.39"/><rect class="cls-9" x="10.76" y="13.92" width="269.56" height="269.56" rx="6.39"/><rect class="cls-10" x="11.68" y="14.83" width="269.56" height="269.56" rx="6.39"/><rect class="cls-11" x="12.6" y="15.74" width="269.56" height="269.56" rx="6.39"/><rect class="cls-12" x="13.51" y="16.64" width="269.56" height="269.56" rx="6.39"/><rect class="cls-13" x="14.43" y="17.55" width="269.56" height="269.56" rx="6.39"/><rect class="cls-14" x="15.35" y="18.46" width="269.56" height="269.56" rx="6.39"/><rect class="cls-15" x="16.27" y="19.37" width="269.56" height="269.56" rx="6.39"/><rect class="cls-16" x="17.18" y="20.28" width="269.56" height="269.56" rx="6.39"/><rect class="cls-17" x="18.1" y="21.19" width="269.56" height="269.56" rx="6.39"/><rect class="cls-18" x="19.02" y="22.09" width="269.56" height="269.56" rx="6.39"/><rect class="cls-19" x="19.94" y="23" width="269.56" height="269.56" rx="6.39"/><rect class="cls-20" x="20.85" y="23.91" width="269.56" height="269.56" rx="6.4"/><rect class="cls-21" x="21.77" y="24.82" width="269.56" height="269.56" rx="6.4"/><rect class="cls-22" x="22.69" y="25.73" width="269.56" height="269.56" rx="6.4"/><rect class="cls-23" x="23.6" y="26.63" width="269.56" height="269.56" rx="6.4"/><rect class="cls-24" x="24.52" y="27.54" width="269.56" height="269.56" rx="6.4"/><rect class="cls-25" x="25.44" y="28.45" width="269.56" height="269.56" rx="6.4"/><rect class="cls-26" x="26.36" y="29.36" width="269.56" height="269.56" rx="6.4"/><rect class="cls-27" x="27.27" y="30.27" width="269.56" height="269.56" rx="6.4"/><rect class="cls-28" x="28.19" y="31.18" width="269.56" height="269.56" rx="6.4"/><rect class="cls-29" x="29.11" y="32.08" width="269.56" height="269.56" rx="6.4"/><rect class="cls-30" x="30.03" y="32.99" width="269.56" height="269.56" rx="6.4"/><rect class="cls-31" x="30.94" y="33.9" width="269.56" height="269.56" rx="6.4"/><rect class="cls-32" x="31.86" y="34.81" width="269.56" height="269.56" rx="6.4"/><rect class="cls-33" x="32.78" y="35.72" width="269.56" height="269.56" rx="6.4"/><rect class="cls-34" x="33.7" y="36.63" width="269.56" height="269.56" rx="6.4"/><rect class="cls-35" x="34.61" y="37.53" width="269.56" height="269.56" rx="6.4"/><rect class="cls-36" x="35.53" y="38.44" width="269.56" height="269.56" rx="6.4"/><rect class="cls-37" x="36.45" y="39.35" width="269.56" height="269.56" rx="6.4"/><rect class="cls-38" x="37.36" y="40.26" width="269.56" height="269.56" rx="6.4"/><rect class="cls-39" x="38.28" y="41.17" width="269.56" height="269.56" rx="6.4"/><rect class="cls-40" x="39.2" y="42.07" width="269.56" height="269.56" rx="6.4"/><rect class="cls-41" x="40.12" y="42.98" width="269.56" height="269.56" rx="6.4"/><rect class="cls-42" x="41.03" y="43.89" width="269.56" height="269.56" rx="6.4"/><rect class="cls-43" x="41.95" y="44.8" width="269.56" height="269.56" rx="6.4"/><rect class="cls-44" x="42.87" y="45.71" width="269.56" height="269.56" rx="6.4"/><rect class="cls-45" x="43.79" y="46.62" width="269.56" height="269.56" rx="6.4"/><rect class="cls-46" x="44.7" y="47.52" width="269.56" height="269.56" rx="6.4"/><rect class="cls-47" x="45.62" y="48.43" width="269.56" height="269.56" rx="6.4"/><rect class="cls-48" x="46.54" y="49.34" width="269.56" height="269.56" rx="6.4"/><rect class="cls-49" x="47.46" y="50.25" width="269.56" height="269.56" rx="6.4"/><rect class="cls-50" x="48.37" y="51.16" width="269.56" height="269.56" rx="6.4"/><rect class="cls-51" x="49.29" y="52.07" width="269.56" height="269.56" rx="6.4"/><rect class="cls-52" x="50.21" y="52.97" width="269.56" height="269.56" rx="6.4"/><rect class="cls-53" x="51.12" y="53.88" width="269.56" height="269.56" rx="6.4"/></svg>