<svg width="201" height="58" viewBox="0 0 201 58" fill="none" xmlns="http://www.w3.org/2000/svg">
<g clip-path="url(#clip0_80_1005)">
<path d="M66.9805 10.6621H69.5789L77.2803 22.3423L85.0146 10.6621H87.5817L78.4358 24.6846V32.4829H76.1576V24.6846L66.9805 10.6621Z" fill="white"/>
<path d="M104.048 17.9778V32.4829H101.865V31.1665C100.006 32.3861 98.3691 32.9638 96.3141 32.9638C91.8856 32.9638 88.9343 29.7877 88.9343 25.0063C88.9671 20.3217 91.7904 17.1768 96.4422 17.1768C99.2342 17.1768 101.063 17.4016 104.047 17.9778H104.048ZM91.1173 25.0687C91.1173 28.6306 93.2348 31.0697 96.5718 31.0697C98.3363 31.0697 99.876 30.5887 101.865 29.2724V19.4863C100.006 19.1974 98.4956 19.0678 96.731 19.0678C93.0411 19.0678 91.1158 21.5381 91.1158 25.0687H91.1173Z" fill="white"/>
<path d="M119.905 19.4534C117.788 19.4534 116.024 19.5174 113.841 19.775V32.4827H111.659V18.0745C114.354 17.592 117.146 17.3047 119.905 17.3047V19.4534Z" fill="white"/>
<path d="M125.719 12.2985C125.719 11.3678 126.425 10.6948 127.323 10.6948C128.221 10.6948 128.927 11.3694 128.927 12.2985C128.927 13.2276 128.221 13.871 127.323 13.871C126.425 13.871 125.719 13.1964 125.719 12.2985ZM128.414 32.4828H126.231V17.6577H128.414V32.4828Z" fill="white"/>
<path d="M138.623 32.4829H136.441V9.7002H138.623V32.4829Z" fill="white"/>
<path d="M159.898 17.9778V32.4829H157.715V31.1665C155.855 32.3861 154.219 32.9638 152.164 32.9638C147.735 32.9638 144.784 29.7877 144.784 25.0063C144.817 20.3217 147.64 17.1768 152.292 17.1768C155.084 17.1768 156.912 17.4016 159.896 17.9778H159.898ZM146.967 25.0687C146.967 28.6306 149.084 31.0697 152.421 31.0697C154.186 31.0697 155.726 30.5887 157.715 29.2724V19.4863C155.855 19.1974 154.345 19.0678 152.581 19.0678C148.891 19.0678 146.965 21.5381 146.965 25.0687H146.967Z" fill="white"/>
<path d="M169.18 17.8498C170.977 17.3361 172.676 17.1752 174.442 17.1752C179.319 17.1752 182.111 20.3202 182.111 24.9719C182.111 29.8814 179.094 32.8967 174.731 32.8967C172.421 32.8967 170.944 32.9295 166.998 32.1909V9.7002H169.181V17.8498H169.18ZM169.211 19.7424V30.6216C171.778 31.0713 172.965 31.0713 174.345 31.0713C177.938 31.0713 179.961 28.6322 179.961 24.9735C179.961 21.3148 178.035 19.0694 174.248 19.0694C172.707 19.0694 171.104 19.199 169.211 19.744V19.7424Z" fill="white"/>
<path d="M187.892 29.6581C190.009 30.5887 192.32 31.1353 194.117 31.1353C196.363 31.1353 197.999 30.2374 197.999 28.5666C197.999 26.674 195.816 26.3211 192.896 25.7105C189.687 25.036 188.018 24.0428 188.018 21.6037C188.018 18.8133 190.232 17.208 193.891 17.208C195.848 17.208 198.062 17.6905 199.603 18.2355L199.025 19.9672C197.228 19.3895 195.239 19.0038 193.73 19.0038C191.452 19.0038 190.168 19.8704 190.168 21.5069C190.168 23.0466 191.516 23.3995 194.116 24.0085C197.645 24.7799 200.053 25.4529 200.053 28.3729C200.053 31.293 197.55 32.9607 193.988 32.9607C191.934 32.9607 189.464 32.3829 187.378 31.4851L187.892 29.6565V29.6581Z" fill="white"/>
<path d="M75.7107 49.3259V43.0845H76.7351V49.3259H75.7107Z" fill="white"/>
<path d="M80.9563 44.5093C81.4888 44.5093 81.9026 44.6467 82.2008 44.9215C82.4975 45.1963 82.6474 45.6367 82.6474 46.2426V49.325H81.6449V46.43C81.6449 46.063 81.5699 45.7882 81.4185 45.6039C81.267 45.4196 81.0343 45.3291 80.7189 45.3291C80.2614 45.3291 79.9428 45.4696 79.7648 45.7523C79.5868 46.0333 79.4978 46.4424 79.4978 46.9781V49.3266H78.4953V44.5998H79.2761L79.4166 45.2401H79.4728C79.5759 45.0745 79.7024 44.9387 79.8554 44.8325C80.0069 44.7263 80.1786 44.6451 80.3676 44.592C80.5565 44.5374 80.7533 44.5108 80.9594 44.5108L80.9563 44.5093Z" fill="white"/>
<path d="M86.7307 44.5093C87.2632 44.5093 87.677 44.6467 87.9753 44.9215C88.272 45.1963 88.4219 45.6367 88.4219 46.2426V49.325H87.4194V46.43C87.4194 46.063 87.3444 45.7882 87.193 45.6039C87.0415 45.4196 86.8088 45.3291 86.4934 45.3291C86.0359 45.3291 85.7173 45.4696 85.5393 45.7523C85.3613 46.0333 85.2723 46.4424 85.2723 46.9781V49.3266H84.2698V44.5998H85.0505L85.1911 45.2401H85.2473C85.3504 45.0745 85.4768 44.9387 85.6299 44.8325C85.7813 44.7263 85.9531 44.6451 86.1421 44.592C86.331 44.5374 86.5278 44.5108 86.7339 44.5108L86.7307 44.5093Z" fill="white"/>
<path d="M94.2246 46.9515C94.2246 47.345 94.1731 47.6932 94.0716 47.9977C93.9686 48.3022 93.8202 48.5599 93.6235 48.7676C93.4267 48.9768 93.1909 49.1361 92.9145 49.2454C92.6381 49.3547 92.3274 49.4094 91.9792 49.4094C91.6544 49.4094 91.3577 49.3547 91.0875 49.2454C90.8174 49.1361 90.5832 48.9768 90.3849 48.7676C90.1865 48.5583 90.0335 48.3022 89.9258 47.9977C89.818 47.6932 89.7634 47.345 89.7634 46.9515C89.7634 46.43 89.8539 45.988 90.0351 45.6258C90.2162 45.2635 90.4739 44.9855 90.8096 44.795C91.1453 44.6045 91.5451 44.5093 92.0088 44.5093C92.4445 44.5093 92.8286 44.6045 93.1612 44.795C93.4939 44.9855 93.7546 45.2635 93.942 45.6273C94.1294 45.9912 94.2231 46.4331 94.2231 46.9515H94.2246ZM90.7955 46.9515C90.7955 47.2966 90.8377 47.5902 90.922 47.8353C91.0063 48.0805 91.1359 48.2679 91.3124 48.3975C91.4889 48.5271 91.7168 48.5911 91.9948 48.5911C92.2727 48.5911 92.5007 48.5271 92.6772 48.3975C92.8536 48.2679 92.9832 48.0805 93.066 47.8353C93.1488 47.5902 93.1894 47.2966 93.1894 46.9515C93.1894 46.6064 93.1488 46.3144 93.066 46.0739C92.9832 45.8335 92.8536 45.6492 92.6772 45.5227C92.5007 45.3962 92.2712 45.3322 91.9901 45.3322C91.5747 45.3322 91.2718 45.4712 91.0813 45.7507C90.8908 46.0302 90.7955 46.43 90.7955 46.9499V46.9515Z" fill="white"/>
<path d="M96.6764 49.3254L94.8791 44.5986H95.9425L96.9153 47.3735C96.9778 47.5499 97.0355 47.7404 97.0855 47.945C97.137 48.1496 97.1729 48.3229 97.1917 48.4619H97.226C97.2463 48.3166 97.2838 48.1417 97.3416 47.9387C97.3978 47.7357 97.4571 47.5468 97.5165 47.3735L98.4893 44.5986H99.548L97.7507 49.3254H96.6748H96.6764Z" fill="white"/>
<path d="M102.337 44.5093C102.935 44.5093 103.386 44.642 103.692 44.9059C103.998 45.1698 104.151 45.5836 104.151 46.1442V49.325H103.438L103.246 48.6551H103.211C103.077 48.8253 102.939 48.9674 102.797 49.0783C102.655 49.1892 102.491 49.2719 102.304 49.3282C102.118 49.3844 101.89 49.4109 101.623 49.4109C101.342 49.4109 101.089 49.3594 100.867 49.2548C100.646 49.1501 100.471 48.9924 100.343 48.7785C100.215 48.5646 100.151 48.2944 100.151 47.9681C100.151 47.4809 100.332 47.1155 100.696 46.8703C101.058 46.6251 101.607 46.4909 102.341 46.4643L103.161 46.4346V46.1864C103.161 45.8584 103.085 45.6258 102.933 45.4868C102.78 45.3478 102.566 45.2775 102.291 45.2775C102.056 45.2775 101.826 45.3119 101.604 45.3806C101.383 45.4493 101.166 45.5336 100.955 45.632L100.63 44.9231C100.861 44.8013 101.123 44.7013 101.417 44.6248C101.712 44.5483 102.018 44.5093 102.337 44.5093ZM103.157 47.0671L102.546 47.0889C102.045 47.1061 101.693 47.192 101.492 47.345C101.29 47.498 101.189 47.7088 101.189 47.9774C101.189 48.2101 101.259 48.3803 101.398 48.4881C101.537 48.5942 101.721 48.6473 101.949 48.6473C102.296 48.6473 102.585 48.549 102.815 48.3506C103.044 48.1523 103.158 47.8619 103.158 47.4777V47.0686L103.157 47.0671Z" fill="white"/>
<path d="M107.533 48.6008C107.664 48.6008 107.794 48.5883 107.922 48.5649C108.05 48.5414 108.167 48.5118 108.271 48.4774V49.2379C108.161 49.2863 108.017 49.3269 107.84 49.3612C107.664 49.3956 107.48 49.4128 107.289 49.4128C107.022 49.4128 106.782 49.3675 106.568 49.2785C106.354 49.1895 106.185 49.0349 106.06 48.8147C105.935 48.5961 105.873 48.2931 105.873 47.9059V45.3653H105.228V44.9171L105.92 44.5627L106.249 43.5508H106.882V44.6017H108.236V45.3653H106.882V47.8934C106.882 48.1323 106.941 48.3103 107.061 48.4274C107.181 48.5446 107.339 48.6023 107.534 48.6023L107.533 48.6008Z" fill="white"/>
<path d="M109.961 42.7905C110.114 42.7905 110.249 42.8311 110.361 42.9139C110.474 42.9967 110.53 43.1387 110.53 43.3402C110.53 43.5416 110.474 43.6806 110.361 43.7649C110.249 43.8492 110.116 43.8914 109.961 43.8914C109.807 43.8914 109.668 43.8492 109.559 43.7649C109.449 43.6806 109.395 43.5401 109.395 43.3402C109.395 43.1403 109.449 42.9951 109.559 42.9139C109.668 42.8311 109.802 42.7905 109.961 42.7905ZM110.456 44.6003V49.3271H109.454V44.6003H110.456Z" fill="white"/>
<path d="M116.292 46.9515C116.292 47.345 116.241 47.6932 116.139 47.9977C116.036 48.3022 115.888 48.5599 115.691 48.7676C115.494 48.9768 115.259 49.1361 114.982 49.2454C114.706 49.3547 114.395 49.4094 114.047 49.4094C113.722 49.4094 113.425 49.3547 113.155 49.2454C112.885 49.1361 112.651 48.9768 112.453 48.7676C112.254 48.5583 112.101 48.3022 111.994 47.9977C111.886 47.6932 111.831 47.345 111.831 46.9515C111.831 46.43 111.922 45.988 112.103 45.6258C112.284 45.2635 112.542 44.9855 112.877 44.795C113.213 44.6045 113.613 44.5093 114.077 44.5093C114.512 44.5093 114.896 44.6045 115.229 44.795C115.562 44.9855 115.822 45.2635 116.01 45.6273C116.197 45.9912 116.291 46.4331 116.291 46.9515H116.292ZM112.863 46.9515C112.863 47.2966 112.905 47.5902 112.99 47.8353C113.074 48.0805 113.204 48.2679 113.38 48.3975C113.557 48.5271 113.785 48.5911 114.063 48.5911C114.341 48.5911 114.569 48.5271 114.745 48.3975C114.921 48.2679 115.051 48.0805 115.134 47.8353C115.217 47.5902 115.257 47.2966 115.257 46.9515C115.257 46.6064 115.217 46.3144 115.134 46.0739C115.051 45.8335 114.921 45.6492 114.745 45.5227C114.569 45.3962 114.339 45.3322 114.058 45.3322C113.643 45.3322 113.34 45.4712 113.149 45.7507C112.959 46.0302 112.863 46.43 112.863 46.9499V46.9515Z" fill="white"/>
<path d="M120.125 44.5093C120.658 44.5093 121.072 44.6467 121.37 44.9215C121.667 45.1963 121.817 45.6367 121.817 46.2426V49.325H120.814V46.43C120.814 46.063 120.739 45.7882 120.588 45.6039C120.436 45.4196 120.203 45.3291 119.888 45.3291C119.431 45.3291 119.112 45.4696 118.934 45.7523C118.756 46.0333 118.667 46.4424 118.667 46.9781V49.3266H117.664V44.5998H118.445L118.586 45.2401H118.642C118.745 45.0745 118.871 44.9387 119.025 44.8325C119.176 44.7263 119.348 44.6451 119.537 44.592C119.726 44.5374 119.922 44.5108 120.129 44.5108L120.125 44.5093Z" fill="white"/>
<path d="M123.292 48.7958C123.292 48.5631 123.352 48.3976 123.473 48.3023C123.593 48.2071 123.741 48.1587 123.915 48.1587C124.088 48.1587 124.236 48.2071 124.361 48.3023C124.485 48.3976 124.547 48.5616 124.547 48.7958C124.547 49.03 124.485 49.1877 124.361 49.2892C124.238 49.3907 124.088 49.4407 123.915 49.4407C123.741 49.4407 123.593 49.3907 123.473 49.2892C123.351 49.1877 123.292 49.0238 123.292 48.7958Z" fill="white"/>
<path d="M133.709 46.146C133.709 46.8487 133.578 47.4359 133.318 47.9074C133.055 48.379 132.676 48.7335 132.178 48.9708C131.68 49.2082 131.078 49.3269 130.376 49.3269H128.642V43.0854H130.563C131.209 43.0854 131.767 43.201 132.237 43.4337C132.707 43.6663 133.069 44.0083 133.325 44.4627C133.581 44.9171 133.709 45.4777 133.709 46.1476V46.146ZM132.641 46.1757C132.641 45.6635 132.562 45.2419 132.401 44.9124C132.24 44.583 132.004 44.3362 131.692 44.1754C131.38 44.0146 130.997 43.9349 130.541 43.9349H129.667V48.468H130.393C131.147 48.468 131.711 48.276 132.084 47.8918C132.457 47.5077 132.643 46.9362 132.643 46.1757H132.641Z" fill="white"/>
<path d="M137.048 44.5093C137.469 44.5093 137.83 44.5967 138.131 44.7701C138.433 44.9434 138.665 45.1901 138.828 45.5087C138.99 45.8272 139.071 46.2082 139.071 46.6533V47.1904H135.917C135.928 47.6495 136.051 48.0009 136.286 48.2491C136.52 48.4974 136.849 48.6208 137.274 48.6208C137.575 48.6208 137.847 48.5911 138.088 48.5333C138.328 48.4756 138.576 48.3881 138.832 48.2757V49.0908C138.597 49.2017 138.356 49.2829 138.111 49.3344C137.866 49.3859 137.574 49.4109 137.232 49.4109C136.768 49.4109 136.361 49.3203 136.009 49.1392C135.658 48.9581 135.383 48.6895 135.185 48.3303C134.986 47.9712 134.888 47.5262 134.888 46.9937C134.888 46.4612 134.977 46.0146 135.157 45.6445C135.336 45.2744 135.588 44.9933 135.912 44.7997C136.237 44.6061 136.615 44.5093 137.048 44.5093ZM137.048 45.2651C136.732 45.2651 136.476 45.3681 136.281 45.5727C136.086 45.7772 135.972 46.0786 135.937 46.4737H138.089C138.086 46.2379 138.047 46.0286 137.972 45.8459C137.897 45.6632 137.783 45.5211 137.63 45.4196C137.477 45.3166 137.283 45.2666 137.048 45.2666V45.2651Z" fill="white"/>
<path d="M141.43 49.3254H140.423V42.6826H141.43V49.3254Z" fill="white"/>
<path d="M143.586 42.7905C143.739 42.7905 143.873 42.8311 143.985 42.9139C144.098 42.9967 144.154 43.1387 144.154 43.3402C144.154 43.5416 144.098 43.6806 143.985 43.7649C143.873 43.8492 143.74 43.8914 143.586 43.8914C143.431 43.8914 143.292 43.8492 143.183 43.7649C143.073 43.6806 143.019 43.5401 143.019 43.3402C143.019 43.1403 143.073 42.9951 143.183 42.9139C143.292 42.8311 143.426 42.7905 143.586 42.7905ZM144.081 44.6003V49.3271H143.078V44.6003H144.081Z" fill="white"/>
<path d="M146.814 49.3254L145.017 44.5986H146.08L147.053 47.3735C147.115 47.5499 147.173 47.7404 147.223 47.945C147.275 48.1496 147.311 48.3229 147.329 48.4619H147.364C147.384 48.3166 147.422 48.1417 147.479 47.9387C147.536 47.7357 147.595 47.5468 147.654 47.3735L148.627 44.5986H149.686L147.888 49.3254H146.813H146.814Z" fill="white"/>
<path d="M152.505 44.5093C152.926 44.5093 153.287 44.5967 153.589 44.7701C153.89 44.9434 154.123 45.1901 154.285 45.5087C154.447 45.8272 154.529 46.2082 154.529 46.6533V47.1904H151.374C151.385 47.6495 151.509 48.0009 151.743 48.2491C151.977 48.4974 152.306 48.6208 152.731 48.6208C153.033 48.6208 153.304 48.5911 153.545 48.5333C153.785 48.4756 154.034 48.3881 154.29 48.2757V49.0908C154.054 49.2017 153.813 49.2829 153.568 49.3344C153.323 49.3859 153.031 49.4109 152.689 49.4109C152.225 49.4109 151.818 49.3203 151.466 49.1392C151.115 48.9581 150.84 48.6895 150.642 48.3303C150.444 47.9712 150.345 47.5262 150.345 46.9937C150.345 46.4612 150.434 46.0146 150.614 45.6445C150.793 45.2744 151.045 44.9933 151.37 44.7997C151.694 44.6061 152.072 44.5093 152.505 44.5093ZM152.505 45.2651C152.189 45.2651 151.933 45.3681 151.738 45.5727C151.543 45.7772 151.429 46.0786 151.395 46.4737H153.546C153.543 46.2379 153.504 46.0286 153.429 45.8459C153.354 45.6632 153.24 45.5211 153.087 45.4196C152.934 45.3166 152.741 45.2666 152.505 45.2666V45.2651Z" fill="white"/>
<path d="M158.273 44.5099C158.352 44.5099 158.44 44.5145 158.534 44.5224C158.627 44.5302 158.708 44.5427 158.777 44.5567L158.683 45.4967C158.624 45.4796 158.551 45.4671 158.463 45.4577C158.376 45.4499 158.299 45.4452 158.231 45.4452C158.051 45.4452 157.881 45.4749 157.718 45.5327C157.556 45.5904 157.412 45.6794 157.287 45.7966C157.163 45.9152 157.064 46.062 156.992 46.2385C156.92 46.4149 156.886 46.6195 156.886 46.8537V49.3256H155.879V44.5989H156.664L156.8 45.4312H156.847C156.941 45.2625 157.058 45.1095 157.197 44.9705C157.336 44.8315 157.497 44.7191 157.678 44.6348C157.859 44.5505 158.057 44.5083 158.273 44.5083V44.5099Z" fill="white"/>
<path d="M161.754 44.5093C162.176 44.5093 162.537 44.5967 162.838 44.7701C163.14 44.9434 163.372 45.1901 163.535 45.5087C163.697 45.8272 163.778 46.2082 163.778 46.6533V47.1904H160.624C160.635 47.6495 160.758 48.0009 160.992 48.2491C161.227 48.4974 161.556 48.6208 161.981 48.6208C162.282 48.6208 162.554 48.5911 162.794 48.5333C163.035 48.4756 163.283 48.3881 163.539 48.2757V49.0908C163.303 49.2017 163.063 49.2829 162.818 49.3344C162.573 49.3859 162.281 49.4109 161.939 49.4109C161.475 49.4109 161.067 49.3203 160.716 49.1392C160.365 48.9581 160.09 48.6895 159.892 48.3303C159.693 47.9712 159.595 47.5262 159.595 46.9937C159.595 46.4612 159.684 46.0146 159.863 45.6445C160.043 45.2744 160.294 44.9933 160.619 44.7997C160.944 44.6061 161.322 44.5093 161.754 44.5093ZM161.754 45.2651C161.439 45.2651 161.183 45.3681 160.988 45.5727C160.793 45.7772 160.679 46.0786 160.644 46.4737H162.796C162.793 46.2379 162.754 46.0286 162.679 45.8459C162.604 45.6632 162.49 45.5211 162.337 45.4196C162.184 45.3166 161.99 45.2666 161.754 45.2666V45.2651Z" fill="white"/>
<path d="M166.717 49.4113C166.153 49.4113 165.702 49.2052 165.361 48.7945C165.021 48.3839 164.85 47.7764 164.85 46.9738C164.85 46.1712 165.024 45.5497 165.369 45.1343C165.714 44.719 166.17 44.5113 166.737 44.5113C166.976 44.5113 167.185 44.5441 167.365 44.6065C167.544 44.6705 167.699 44.7564 167.828 44.8642C167.958 44.9719 168.069 45.0937 168.159 45.2264H168.206C168.192 45.139 168.175 45.011 168.158 44.8439C168.141 44.6768 168.13 44.5238 168.13 44.3801V42.6812H169.137V49.3239H168.351L168.172 48.679H168.13C168.044 48.8164 167.938 48.9382 167.808 49.0491C167.678 49.1584 167.525 49.2458 167.347 49.3114C167.169 49.377 166.96 49.4098 166.718 49.4098L166.717 49.4113ZM166.998 48.5962C167.427 48.5962 167.73 48.4729 167.906 48.2246C168.083 47.9763 168.173 47.6062 168.18 47.1097V46.9769C168.18 46.4476 168.094 46.0416 167.924 45.7574C167.753 45.4747 167.441 45.3326 166.988 45.3326C166.628 45.3326 166.351 45.4779 166.162 45.7699C165.973 46.0619 165.878 46.4679 165.878 46.9894C165.878 47.511 165.973 47.9076 166.162 48.1824C166.351 48.4572 166.629 48.5947 166.996 48.5947L166.998 48.5962Z" fill="white"/>
<path d="M170.644 48.7958C170.644 48.5631 170.705 48.3976 170.825 48.3023C170.945 48.2071 171.093 48.1587 171.267 48.1587C171.44 48.1587 171.588 48.2071 171.713 48.3023C171.837 48.3976 171.899 48.5616 171.899 48.7958C171.899 49.03 171.837 49.1877 171.713 49.2892C171.59 49.3907 171.44 49.4407 171.267 49.4407C171.093 49.4407 170.945 49.3907 170.825 49.2892C170.705 49.1877 170.644 49.0238 170.644 48.7958Z" fill="white"/>
<path d="M37.6736 0.383893L45.8013 15.3105C45.8185 15.3433 45.8357 15.3761 45.8482 15.4105C50.6733 27.3546 17.0926 49.7657 5.64349 56.9768C4.94393 57.4172 4.16472 56.5427 4.68315 55.8994C12.7734 45.8728 35.8247 16.0117 36.3025 0.69776C36.326 -0.0424045 37.3191 -0.267265 37.6736 0.382331V0.383893Z" fill="white"/>
<path d="M0.671315 8.01842L13.607 10.748C13.9818 10.8276 14.2535 11.1399 14.3019 11.5194C14.7469 14.9672 18.0839 23.412 19.6033 27.1362C19.8157 27.6562 19.2113 28.1262 18.7601 27.7921C13.9256 24.2208 -0.240618 13.337 0.00298096 8.49937C0.0201578 8.17145 0.351202 7.95127 0.671315 8.01842Z" fill="white"/>
</g>
<defs>
<clipPath id="clip0_80_1005">
<rect width="200.051" height="57.0957" fill="white"/>
</clipPath>
</defs>
</svg>
